<svg width="24" height="24" viewBox="0 0 24 24" fill="none" xmlns="http://www.w3.org/2000/svg">
<path d="M8.1 15C9.5 15 10 14 10 14L9.2 13.5C9.2 13.5 8.9 14 8.2 14C7.5 14 7 13.1 7 11.8C7 10.6 7.6 10 8.2 10C8.7 10 9.1 10.4 9.1 10.4L9.9 9.8C9.9 9.8 9.2 9 8.2 9C7.1 9 6 9.9 6 11.8C6 13.7 6.9 15 8.1 15ZM12.7 13.9C12.4 14 12 13.9 11.7 13.5L10.9 14C11.3 14.6 11.9 15 12.5 15C12.6 15 12.8 15 12.9 14.9C13.6 14.7 14 14.1 14 13.3C14 12.1 13.2 11.7 12.7 11.5C12.2 11.2 12 11.1 12 10.7C12 10.3 12.1 10 12.6 10C12.9 10 13.2 10.4 13.2 10.4L14 9.8C13.8 9.5 13.3 9 12.6 9C11.7 9 11 9.6 11 10.6C11 11.7 11.7 12.1 12.2 12.4C12.8 12.6 13 12.8 13 13.3C13 13.6 13 13.9 12.7 13.9ZM16.7 13.9C16.4 14 16 13.9 15.7 13.5L14.9 14C15.3 14.6 15.9 15 16.5 15C16.6 15 16.8 15 16.9 14.9C17.6 14.7 18 14.1 18 13.3C18 12.1 17.2 11.7 16.7 11.5C16.2 11.2 16 11.1 16 10.7C16 10.3 16.1 10 16.6 10C16.9 10 17.2 10.4 17.2 10.4L18 9.8C17.8 9.5 17.3 9 16.6 9C15.7 9 15 9.6 15 10.6C15 11.7 15.7 12.1 16.2 12.4C16.8 12.6 17 12.8 17 13.3C17 13.6 17 13.9 16.7 13.9ZM4 4V20H20V4H4ZM19 19H5V5H19V19Z" fill="tomato" fill-opacity="0.6"/>
</svg>
