<svg width="24" height="24" viewBox="0 0 24 24" fill="none" xmlns="http://www.w3.org/2000/svg">
<path d="M12.2475 4C5.86748 4 3.13748 11.38 4.23748 13.92C5.05748 15.81 6.85748 14 7.57748 14.92C9.45748 17.38 5.46748 18.73 7.66748 19.6C10.2575 20.66 19.9975 20 19.9975 11.07C19.9975 8.38 18.6575 4 12.2475 4ZM8.46748 13C7.65248 12.983 6.99748 12.318 6.99748 11.5C6.99748 10.672 7.66948 10 8.49748 10C9.32548 10 9.99748 10.671 9.99748 11.5C9.99748 12.328 9.32548 13 8.49748 13C8.48648 13 8.47648 13 8.46548 13H8.46748ZM9.99748 7.5C9.99748 6.672 10.6695 6 11.4975 6C12.3255 6 12.9975 6.672 12.9975 7.5C12.9975 8.328 12.3255 9 11.4975 9C11.4865 9 11.4765 9 11.4655 9C10.6515 8.983 9.99748 8.318 9.99748 7.5ZM12.4675 18C11.6525 17.983 10.9975 17.318 10.9975 16.5C10.9975 15.672 11.6695 15 12.4975 15C13.3255 15 13.9975 15.671 13.9975 16.5C13.9975 17.328 13.3255 18 12.4975 18C12.4865 18 12.4765 18 12.4655 18H12.4675ZM16.4675 15C15.6525 14.983 14.9975 14.318 14.9975 13.5C14.9975 12.672 15.6695 12 16.4975 12C17.3255 12 17.9975 12.671 17.9975 13.5C17.9975 14.328 17.3255 15 16.4975 15C16.4865 15 16.4765 15 16.4655 15H16.4675ZM16.4675 10C15.6525 9.983 14.9975 9.318 14.9975 8.5C14.9975 7.672 15.6695 7 16.4975 7C17.3255 7 17.9975 7.671 17.9975 8.5C17.9975 9.328 17.3255 10 16.4975 10C16.4865 10 16.4765 10 16.4655 10H16.4675Z" fill="tomato" fill-opacity="0.6"/>
</svg>
